<svg width="460" height="381" viewBox="0 0 460 381" fill="none" xmlns="http://www.w3.org/2000/svg">
<path fill-rule="evenodd" clip-rule="evenodd" d="M199.858 0.606496C197.938 0.920776 192.446 2.98688 187.654 5.19965C179.373 9.02222 178.662 9.15375 173.295 7.86636C166.223 6.17042 157.997 7.03527 154.195 9.87427C152.593 11.0697 149.291 15.4487 146.856 19.6053C139.231 32.6235 133.366 40.1115 126.219 45.9559C117.486 53.0994 114.161 57.8415 113.492 64.1062C113.009 68.6295 113.636 70.1194 120.619 81.0389C130.094 95.8543 133.445 105.072 132.455 113.589C131.924 118.154 132.122 119.7 133.237 119.7C135.778 119.7 146.541 104.993 149.405 97.6096C152.329 90.0669 153.882 89.1287 156.724 93.1876C158.074 95.1152 158.533 98.748 158.522 107.447C158.507 120.567 157.351 125.719 150.682 142.398C140.952 166.727 138.5 180.594 138.439 211.656C138.413 224.14 139.077 240.796 139.912 248.668C140.998 258.89 141.074 263.34 140.179 264.235C139.284 265.13 136.8 265.065 131.488 264.009C122.848 262.292 117.27 263.054 111.879 266.688C105.502 270.984 103.241 276.107 103.285 286.152C103.32 294.007 103.812 295.874 108.191 304.776C110.868 310.218 118.184 321.597 124.449 330.062C135.82 345.429 141.987 355.469 140.789 356.668C140.44 357.016 131.851 355.841 121.7 354.055C97.1738 349.741 68.7163 349.457 51.2784 353.354C24.3947 359.363 -1.44614 370.89 0.514038 375.999C2.47305 381.105 30.9282 381.616 71.2364 377.27C87.8338 375.48 99.5309 375.246 157.372 375.546C233.73 375.944 260.475 374.89 270.28 371.096C273.801 369.733 277.142 368.173 277.703 367.629C279.672 365.72 277.264 360.965 272.742 357.831C268.392 354.816 267.863 354.727 261.45 355.912C252.727 357.525 251.656 357.483 251.656 355.532C251.656 353.602 261.344 339.908 270.722 328.581C282.43 314.438 288.871 298.416 288.892 283.379L288.904 274.206L283.931 269.232C278.035 263.336 271.099 261.649 262.255 263.956C259.306 264.725 255.379 265.652 253.526 266.016L250.156 266.677L251.01 259.246C254.507 228.833 254.998 197.966 252.269 180.228C250.349 167.753 245.06 148.51 241.199 139.958C233.876 123.734 232.005 111.643 236.448 109.265C237.686 108.602 239.198 108.06 239.808 108.06C240.418 108.06 241.15 113.43 241.434 119.991C241.959 132.073 244.795 142.357 247.365 141.501C248.044 141.274 249.338 138.878 250.239 136.176C252.578 129.158 261.013 120.805 273.755 112.885C279.828 109.111 285.851 104.609 287.141 102.879C290.712 98.0927 290.177 89.4022 285.778 80.706C280.394 70.0647 278.69 63.2448 278.019 49.6458C277.615 41.4804 276.752 35.949 275.506 33.5384C273.281 29.2386 266.743 26.0236 257.836 24.8491C253.544 24.2834 251.287 23.322 250.047 21.5329C244.007 12.8238 235.93 6.6011 226.63 3.49206C219.38 1.06861 205.918 -0.382904 199.858 0.606496ZM358.292 128.07C357.321 129.551 355.957 134.69 355.259 139.49C353.509 151.552 352.838 152.732 346.349 155.183C343.243 156.357 338.878 158.544 336.649 160.043C331.148 163.742 328.246 163.485 320.33 158.599C312.187 153.572 307.994 153.518 308.335 158.444C308.593 162.181 313.323 172.392 318.693 180.81C321.418 185.082 322.585 188.512 323.077 193.706C323.445 197.598 325.088 203.622 326.727 207.092C329.615 213.206 329.684 213.89 328.946 229.116C328.205 244.44 328.004 245.364 320.898 266.364C316.889 278.208 311.933 292.54 309.884 298.215C306.813 306.722 306.055 310.802 305.562 321.495C304.566 343.072 309.365 359.099 319.664 368.592C326.73 375.106 333.642 376.943 351.099 376.949C358.825 376.951 369.861 377.727 375.622 378.674C395.891 382.004 408.028 380.002 421.3 371.14C444.158 355.877 451.941 333.487 446.633 298.273C443.281 276.031 444.826 266.556 453.659 255.18C459.634 247.485 460.778 244.363 458.907 240.864C455.103 233.757 442.55 241.906 435.765 255.888C432.658 262.289 432.658 262.294 432.593 291.39C432.551 310.19 432.028 322.483 431.111 326.119C429.338 333.161 426.095 339.595 422.832 342.547L420.325 344.814L421.254 336.727C421.765 332.278 422.131 322.352 422.067 314.67C421.964 302.105 421.598 299.767 418.427 291.39C413.811 279.194 408.304 266.918 402.024 254.821C397.62 246.336 396.807 243.616 395.952 234.505C395.101 225.426 394.255 222.584 389.77 213.721L384.575 203.454L386.168 196.788C388.92 185.275 388.351 179.947 383.049 167.565C380.41 161.406 377.002 152.407 375.472 147.568C373.944 142.73 370.992 135.92 368.913 132.436C364.59 125.193 361.113 123.764 358.292 128.07Z" fill="#2C3E50"/>
</svg>
