<svg width="21" height="19" viewBox="0 0 21 19" fill="none" xmlns="http://www.w3.org/2000/svg">
<path d="M6.39092 1C7.57092 0.830002 8.82092 2.12 9.18092 3.9C9.54092 5.67 8.89092 7.25 7.71092 7.43C6.54092 7.61 5.28092 6.32 4.91092 4.54C4.54092 2.77 5.21092 1.19 6.39092 1ZM13.5409 1C14.7309 1.19 15.3909 2.77 15.0409 4.54C14.6609 6.32 13.4109 7.61 12.2309 7.43C11.0409 7.25 10.3909 5.67 10.7609 3.9C11.1209 2.12 12.3709 0.830002 13.5409 1ZM1.04092 5.6C2.18092 5.11 3.73092 6 4.54092 7.55C5.30092 9.13 5.04092 10.79 3.91092 11.28C2.78092 11.77 1.24092 10.89 0.450922 9.32C-0.339078 7.75 -0.059078 6.08 1.04092 5.6ZM19.0409 5.6C20.1409 6.08 20.4209 7.75 19.6309 9.32C18.8409 10.89 17.3009 11.77 16.1709 11.28C15.0409 10.79 14.7809 9.13 15.5409 7.55C16.3509 6 17.9009 5.11 19.0409 5.6ZM17.3709 16.38C17.4109 17.32 16.6909 18.36 15.8309 18.75C14.0409 19.57 11.9209 17.87 9.93092 17.87C7.94092 17.87 5.80092 19.64 4.04092 18.75C3.04092 18.26 2.35092 16.96 2.48092 15.88C2.66092 14.39 4.45092 13.59 5.51092 12.5C6.92092 11.09 7.92092 8.44 9.93092 8.44C11.9309 8.44 12.9909 11.05 14.3409 12.5C15.4509 13.72 17.3009 14.75 17.3709 16.38Z" fill="white"/>
</svg>
